<?xml version="1.0" encoding="utf-8"?>
<!-- Generator: Adobe Illustrator 16.0.0, SVG Export Plug-In . SVG Version: 6.00 Build 0)  -->
<!DOCTYPE svg PUBLIC "-//W3C//DTD SVG 1.1//EN" "http://www.w3.org/Graphics/SVG/1.1/DTD/svg11.dtd">
<svg version="1.1" id="Layer_1" xmlns="http://www.w3.org/2000/svg" xmlns:xlink="http://www.w3.org/1999/xlink" x="0px" y="0px"
	 width="256px" height="256px" viewBox="0 0 256 256" enable-background="new 0 0 256 256" xml:space="preserve">
<g>
	<circle fill="#08A8EC" cx="128.273" cy="128.135" r="113.667"/>
	<g>
		<path fill="#FFFFFF" d="M169.44,88.135c-33.786-32.195-70.667-7-70.667-7l-72,56c0,0,0,17.667,7.667,27l38-42
			c0,0-3.667,32,17.333,48s39,13.999,48.333,12.333L95.44,223.135c0,0,14,5.666,29.667,6.333l50.015-72.853
			C175.122,156.615,197.774,115.135,169.44,88.135z M127.714,164.688c-20.15,0-36.485-16.168-36.485-36.109
			c0-19.943,16.335-36.11,36.485-36.11c20.149,0,36.485,16.167,36.485,36.11C164.2,148.52,147.864,164.688,127.714,164.688z"/>
	</g>
</g>
</svg>
