<?xml version="1.0" standalone="no"?>
<!DOCTYPE svg PUBLIC "-//W3C//DTD SVG 20010904//EN"
 "http://www.w3.org/TR/2001/REC-SVG-20010904/DTD/svg10.dtd">
<svg version="1.0" xmlns="http://www.w3.org/2000/svg"
 width="700.000000pt" height="700.000000pt" viewBox="0 0 700.000000 700.000000"
 preserveAspectRatio="xMidYMid meet">
<metadata>
Created by potrace 1.11, written by Peter Selinger 2001-2013
</metadata>
<g transform="translate(0.000000,700.000000) scale(0.100000,-0.100000)"
fill="#000000" stroke="none">
<path d="M3205 6590 c-785 -83 -1511 -452 -2014 -1024 -383 -436 -623 -917
-731 -1466 -47 -242 -55 -334 -54 -620 1 -285 15 -418 70 -670 36 -160 132
-445 204 -602 410 -897 1223 -1549 2186 -1752 235 -49 350 -60 639 -60 265 -1
350 6 545 40 508 91 990 310 1400 635 137 109 374 346 484 484 380 479 601
1022 666 1640 14 131 14 461 0 600 -133 1341 -1108 2443 -2420 2735 -219 49
-343 62 -625 65 -148 2 -306 0 -350 -5z m645 -1580 c294 -56 570 -209 805
-445 108 -108 179 -209 245 -348 156 -327 161 -740 14 -1192 -78 -241 -78
-241 -809 -1305 l-680 -990 -50 0 c-76 0 -311 37 -438 69 -145 37 -317 92
-317 102 0 4 235 231 523 505 647 616 639 608 607 600 -14 -3 -83 -11 -153
-18 -383 -35 -769 83 -1115 341 -246 184 -397 439 -468 788 -26 132 -44 365
-36 471 2 34 2 62 -1 62 -3 0 -235 -254 -517 -565 -281 -311 -515 -565 -520
-565 -11 0 -61 82 -93 155 -54 122 -89 269 -107 454 -10 93 -9 116 2 127 7 7
455 356 996 777 891 693 994 770 1095 821 322 162 690 219 1017 156z"/>
<path d="M3339 4460 c-315 -54 -584 -245 -728 -519 -166 -318 -148 -702 47
-995 132 -199 325 -339 567 -412 82 -25 104 -28 260 -28 146 0 182 3 253 22
232 63 435 202 568 388 62 87 129 234 156 340 29 119 32 322 5 438 -66 280
-250 521 -500 656 -93 50 -198 86 -306 105 -88 16 -244 18 -322 5z"/>
</g>
</svg>
